<?xml version="1.0" encoding="utf-8"?>
<!-- Generator: Adobe Illustrator 19.1.0, SVG Export Plug-In . SVG Version: 6.00 Build 0)  -->
<svg version="1.1" id="Calque_1" xmlns="http://www.w3.org/2000/svg" xmlns:xlink="http://www.w3.org/1999/xlink" x="0px" y="0px"
	 viewBox="0 0 100 100" style="enable-background:new 0 0 100 100;" xml:space="preserve">
<style type="text/css">
	.st0{fill:#1E1E1E;}
</style>
<image style="display:none;overflow:visible;enable-background:new    ;" width="326" height="376" id="reference" xlink:href="../../../../Desktop/Capture d’écran 2016-03-28 à 13.35.40.png"  transform="matrix(0.5 0 0 0.5 -33.6706 -22.3094)">
</image>
<image style="display:none;overflow:visible;enable-background:new    ;" width="800" height="800" xlink:href="../../../../Downloads/jQurery.gif"  transform="matrix(5.502098e-02 0 0 5.502098e-02 27.9916 35.202)">
</image>
<path class="st0" d="M52.6,35.2c-0.5,2.7,0.2,5.5,3.1,7.5c2.6,1.8,5.5,2,8,0.7c-2.1,3.5-6.9,2.7-9.2,1.1
	C52.1,42.8,49.8,38.9,52.6,35.2z"/>
<path class="st0" d="M46.1,36.9c-0.9,5,0.2,9.4,5.1,12.7c4.5,2.9,10.3,2.9,13.9-1.1c-2.6,7-11.8,6.7-15.6,4
	C44.6,49.5,41.3,42.4,46.1,36.9z"/>
<path class="st0" d="M38.3,39.6c-1.2,7-0.1,12.3,6,16.8c5.4,4.1,14.1,5.5,20-0.3c-4.5,9.5-16.6,9.2-22.8,4.1
	C35.4,55.8,32.1,45.9,38.3,39.6z"/>
</svg>
