<?xml version="1.0" encoding="utf-8"?>
<!-- Generator: Adobe Illustrator 19.1.0, SVG Export Plug-In . SVG Version: 6.00 Build 0)  -->
<svg version="1.1" id="Calque_1" xmlns="http://www.w3.org/2000/svg" xmlns:xlink="http://www.w3.org/1999/xlink" x="0px" y="0px"
	 viewBox="0 0 100 100" style="enable-background:new 0 0 100 100;" xml:space="preserve">
<style type="text/css">
	.st0{fill:#1E1E1E;}
</style>
<image style="display:none;overflow:visible;enable-background:new    ;" width="326" height="376" id="reference" xlink:href="../../../../Desktop/Capture d’écran 2016-03-28 à 13.35.40.png"  transform="matrix(0.5 0 0 0.5 -33.6706 -22.3094)">
</image>
<path class="st0" d="M42.1,46c-0.6-1.6-2.1-2.2-3.2-2.7c-1.1-0.5-3.4-0.4-6.5-0.4H28L24.3,62h4.2l1-5c1.2,0,3,0,3.8,0
	c1.3,0,1.6,0.1,3.4-0.4c1.7-0.5,3.6-1.8,4.3-2.9c0.7-1.1,1.3-2.5,1.4-3.7C42.5,49.3,42.7,47.6,42.1,46z M37.9,50
	c-0.2,0.7-0.5,1.6-0.9,2.3c-0.6,0.8-1.3,1.1-2,1.4C34.3,54,33.4,54,32.6,54c-0.4,0-1.6,0-2.5,0l1.6-8c1.8,0,3.6,0,4.3,0.1
	c0.9,0.2,1.7,0.8,1.9,1.6C38.2,48.6,38.1,49.4,37.9,50z"/>
<path class="st0" d="M74.7,46c-0.6-1.6-2.1-2.2-3.2-2.7c-1.1-0.5-3.4-0.4-6.5-0.4h-4.4L56.9,62h4.2l1-5c1.2,0,3,0,3.8,0
	c1.3,0,1.6,0.1,3.4-0.4c1.7-0.5,3.6-1.8,4.3-2.9c0.7-1.1,1.3-2.5,1.4-3.7C75.1,49.3,75.3,47.6,74.7,46z M70.5,50
	c-0.2,0.7-0.5,1.6-0.9,2.3c-0.6,0.8-1.3,1.1-2,1.4C66.9,54,66,54,65.2,54c-0.4,0-1.6,0-2.5,0l1.6-8c1.8,0,3.6,0,4.3,0.1
	c0.9,0.2,1.7,0.8,1.9,1.6C70.8,48.6,70.7,49.4,70.5,50z"/>
<path class="st0" d="M57.9,45.7c-0.6-1.6-1.6-1.9-2.6-2.4c-1.1-0.5-3.6-0.4-6.7-0.4l1-5h-4.3L41.7,57h4.3l2.2-11
	c1.8,0,3.1-0.1,3.7,0.1c0,0,0,0,0,0c0.9,0.2,1.6,0.7,1.7,1.4c0,0.7-1.7,9.6-1.7,9.6h4.2l1.6-7.5C57.8,48.7,58.4,47,57.9,45.7z"/>
</svg>
